HIERARCHY
ROOT Pelvis
{
	OFFSET 0.000000 0.000000 0.000000
	CHANNELS 6 Xposition Yposition Zposition Xrotation Yrotation Zrotation
	JOINT LeftUpLeg_virtual
	{
		OFFSET 0.000000 0.000000 0.000000
		CHANNELS 3 Xrotation Yrotation Zrotation
		JOINT LeftUpLeg
		{
			OFFSET 18.735201 -5.666702 -4.541200
			CHANNELS 3 Xrotation Yrotation Zrotation
			JOINT LeftLeg
			{
				OFFSET -0.021200 -31.938179 0.493100
				CHANNELS 3 Xrotation Yrotation Zrotation
				JOINT LeftFoot
				{
					OFFSET 0.021200 -31.938179 -4.336299
					CHANNELS 3 Xrotation Yrotation Zrotation
					JOINT LeftToeBase
					{
						OFFSET 0.943001 -26.722000 15.023500
						CHANNELS 3 Xrotation Yrotation Zrotation
						End Site
						{
							OFFSET 0 0 0
						}
					}
				}
			}
		}
	}
	JOINT RightUpLeg_virtual
	{
		OFFSET 0.000000 0.000000 0.000000
		CHANNELS 3 Xrotation Yrotation Zrotation
		JOINT RightUpLeg
		{
			OFFSET -18.735201 -5.666702 -4.541200
			CHANNELS 3 Xrotation Yrotation Zrotation
			JOINT RightLeg
			{
				OFFSET 0.018946 -31.938133 0.493100
				CHANNELS 3 Xrotation Yrotation Zrotation
				JOINT RightFoot
				{
					OFFSET -0.018946 -31.938126 -4.336299
					CHANNELS 3 Xrotation Yrotation Zrotation
					JOINT RightToeBase
					{
						OFFSET -0.943001 -26.722004 15.023500
						CHANNELS 3 Xrotation Yrotation Zrotation
						End Site
						{
							OFFSET 0 0 0
						}
					}
				}
			}
		}
	}
	JOINT Hips_virtual
	{
		OFFSET 0.000000 0.000000 0.000000
		CHANNELS 3 Xrotation Yrotation Zrotation
		JOINT Hips
		{
			OFFSET -0.000000 -0.000000 -0.000000
			CHANNELS 3 Xrotation Yrotation Zrotation
			JOINT Spine
			{
				OFFSET 0.000000 10.199997 -0.299500
				CHANNELS 3 Xrotation Yrotation Zrotation
				JOINT Spine1
				{
					OFFSET 0.000000 11.900002 -1.516600
					CHANNELS 3 Xrotation Yrotation Zrotation
					JOINT Spine2
					{
						OFFSET 0.000000 13.600006 -2.842500
						CHANNELS 3 Xrotation Yrotation Zrotation
						JOINT Neck_virtual
						{
							OFFSET 0.000000 0.000000 0.000000
							CHANNELS 3 Xrotation Yrotation Zrotation
							JOINT Neck
							{
								OFFSET 0.000000 9.624100 -2.890100
								CHANNELS 3 Xrotation Yrotation Zrotation
								JOINT Head
								{
									OFFSET 0.000000 14.068802 -1.351900
									CHANNELS 3 Xrotation Yrotation Zrotation
									End Site
									{
										OFFSET 0 0 0
									}
								}
							}
						}
						JOINT LeftShoulder_virtual
						{
							OFFSET 0.000000 0.000000 0.000000
							CHANNELS 3 Xrotation Yrotation Zrotation
							JOINT LeftShoulder
							{
								OFFSET 15.263000 10.923401 -0.547700
								CHANNELS 3 Xrotation Yrotation Zrotation
								JOINT LeftArm
								{
									OFFSET 25.438599 -2.830597 -13.032500
									CHANNELS 3 Xrotation Yrotation Zrotation
									JOINT LeftForeArm
									{
										OFFSET 29.960503 0.000000 0.000000
										CHANNELS 3 Xrotation Yrotation Zrotation
										JOINT LeftHand
										{
											OFFSET 27.849251 0.000000 0.000000
											CHANNELS 3 Xrotation Yrotation Zrotation
											End Site
											{
												OFFSET 0 0 0
											}
										}
									}
								}
							}
						}
						JOINT RightShoulder_virtual
						{
							OFFSET 0.000000 0.000000 0.000000
							CHANNELS 3 Xrotation Yrotation Zrotation
							JOINT RightShoulder
							{
								OFFSET -15.263000 10.923401 -0.547700
								CHANNELS 3 Xrotation Yrotation Zrotation
								JOINT RightArm
								{
									OFFSET -25.438599 -2.830597 -13.032500
									CHANNELS 3 Xrotation Yrotation Zrotation
									JOINT RightForeArm
									{
										OFFSET -29.960503 0.000000 0.000000
										CHANNELS 3 Xrotation Yrotation Zrotation
										JOINT RightHand
										{
											OFFSET -27.849251 0.000000 0.000000
											CHANNELS 3 Xrotation Yrotation Zrotation
											End Site
											{
												OFFSET 0 0 0
											}
										}
									}
								}
							}
						}
					}
				}
			}
		}
	}
}
MOTION
Frames: 10
Frame Time: 0.03333333
-8.268970 85.146347 3.916508 0.000000 0.000000 0.000000 -15.028359 0.048724 0.348458 -26.091884 -1.711878 19.378906 62.854843 -9.323593 -1.866714 -15.894709 0.097098 -13.246393 0.000000 0.000000 0.000000 -15.352372 0.711821 0.807708 -16.489093 -5.674661 -21.117755 61.159679 -3.820577 6.902545 -33.680537 7.295828 7.702173 0.000000 0.000000 0.000000 -15.029275 0.364427 0.746407 -0.793179 -0.051842 -0.033882 9.468445 0.885306 3.362839 7.296376 -0.380905 1.352402 0.000000 0.000000 0.000000 10.802999 2.423008 1.053520 -5.896807 -1.546875 2.418710 0.000000 0.000000 0.000000 8.806958 1.350115 0.101813 -1.521695 -14.747365 9.507757 -8.770469 -19.945542 -86.407002 67.960164 -59.563853 77.905486 0.000000 0.000000 0.000000 8.356488 3.202035 0.244709 24.370962 -8.635271 17.192146 -26.549534 24.484128 62.307294 65.447214 56.716153 -68.271210 0.000000 0.000000 0.000000 
-8.108961 85.098740 3.963209 0.000000 0.000000 0.000000 -15.083616 0.347539 0.354404 -26.066454 -1.583849 19.212520 62.843792 -9.074576 -1.967840 -16.361621 0.361560 -13.100480 0.000000 0.000000 0.000000 -15.422361 1.048526 0.733066 -16.243646 -5.624746 -21.114946 61.015726 -3.900160 6.838451 -33.845930 7.356411 7.565118 0.000000 0.000000 0.000000 -15.091607 0.758441 0.661236 -0.807924 -0.033382 -0.040420 9.980363 0.941628 3.261350 7.097957 -0.570479 1.384808 0.000000 0.000000 0.000000 10.716310 2.258339 1.002294 -5.754485 -1.518185 2.302769 0.000000 0.000000 0.000000 8.687534 1.290720 0.316170 -1.451085 -14.489328 9.112832 -8.562276 -19.646363 -85.465679 66.739773 -59.994947 76.554522 0.000000 0.000000 0.000000 7.896569 3.092728 0.345556 24.211293 -8.144966 17.005431 -27.839320 23.902349 64.122581 66.532080 56.652249 -69.857631 0.000000 0.000000 0.000000 
-7.965136 85.003464 4.120783 0.000000 0.000000 0.000000 -15.205785 0.919262 0.324732 -25.884141 -1.532629 19.012392 62.822673 -9.019427 -2.010742 -17.711072 0.512306 -13.448117 0.000000 0.000000 0.000000 -15.586160 1.693403 0.631322 -15.795970 -5.748817 -21.261286 61.151025 -3.841748 6.813401 -34.216147 7.506453 7.624979 0.000000 0.000000 0.000000 -15.300394 1.466317 0.555936 -0.813546 -0.034200 -0.049994 10.812767 0.906786 2.845267 6.889910 -0.906854 1.535276 0.000000 0.000000 0.000000 10.207723 1.999513 1.107896 -5.555451 -1.541297 2.239104 0.000000 0.000000 0.000000 8.512991 1.122131 0.741111 -1.154224 -14.852422 9.182525 -8.302010 -19.326092 -83.559202 63.892089 -61.248109 73.605308 0.000000 0.000000 0.000000 7.340853 2.816839 0.460797 23.869158 -8.223702 16.198101 -28.918454 23.374574 65.529026 67.106069 56.140443 -71.178487 0.000000 0.000000 0.000000 
-7.906507 84.905754 4.368633 0.000000 0.000000 0.000000 -15.398810 1.580956 0.278047 -25.534399 -1.631618 18.813486 62.813643 -9.114407 -1.999573 -19.391867 0.544113 -14.060778 0.000000 0.000000 0.000000 -15.826795 2.411859 0.547832 -15.317888 -6.043307 -21.519167 61.564190 -3.668720 6.798334 -34.599413 7.725323 7.929612 0.000000 0.000000 0.000000 -15.620407 2.234884 0.461413 -0.807642 -0.058071 -0.047567 11.846531 0.779871 2.268438 6.714167 -1.377517 1.778451 0.000000 0.000000 0.000000 9.382557 1.618086 1.296513 -5.273401 -1.604681 2.218580 0.000000 0.000000 0.000000 8.386703 0.845985 1.247176 -0.779935 -15.481201 9.607901 -7.506818 -19.029771 -80.246178 60.929939 -63.297378 70.377211 0.000000 0.000000 0.000000 6.876474 2.380807 0.522259 23.315761 -8.887449 14.340136 -28.469892 23.330787 65.435459 67.742158 55.447544 -72.411336 0.000000 0.000000 0.000000 
-7.914212 84.860115 4.654589 0.000000 0.000000 0.000000 -15.664769 2.121884 0.237133 -25.119163 -1.852605 18.621761 62.854365 -9.230359 -1.952276 -20.640687 0.506965 -14.565874 0.000000 0.000000 0.000000 -16.092634 3.055183 0.524676 -14.896779 -6.451740 -21.862882 62.041750 -3.506376 6.786687 -35.047285 7.944583 8.322235 0.000000 0.000000 0.000000 -15.998166 2.891916 0.406931 -0.812891 -0.073511 -0.048197 12.827596 0.560227 1.634620 6.552952 -1.951442 2.027857 0.000000 0.000000 0.000000 8.404100 1.109254 1.498055 -4.834556 -1.665203 2.199805 0.000000 0.000000 0.000000 8.381282 0.463321 1.678668 -0.441274 -15.863461 10.186851 -5.284992 -18.966525 -75.066081 60.005992 -66.451853 68.956866 0.000000 0.000000 0.000000 6.512948 1.804562 0.574065 22.586507 -9.799539 11.270739 -25.512034 24.130795 63.611403 68.005748 54.998357 -73.129046 0.000000 0.000000 0.000000 
-7.966297 84.915741 4.848516 0.000000 0.000000 0.000000 -15.932364 2.424728 0.219056 -24.819943 -2.161500 18.382426 62.989111 -9.255144 -1.859709 -21.039284 0.449403 -14.635512 0.000000 0.000000 0.000000 -16.331486 3.443049 0.580158 -14.529279 -6.899468 -22.166908 62.340728 -3.484295 6.747480 -35.566294 8.096877 8.672320 0.000000 0.000000 0.000000 -16.341228 3.369423 0.411741 -0.836573 -0.059523 -0.050896 13.606676 0.256473 1.046996 6.348349 -2.627067 2.265535 0.000000 0.000000 0.000000 7.421297 0.512451 1.703029 -4.171041 -1.692466 2.149476 0.000000 0.000000 0.000000 8.469161 -0.023616 1.948013 -0.241354 -15.708390 10.947702 -1.117060 -19.205826 -67.776090 62.965595 -70.668156 71.143073 0.000000 0.000000 0.000000 6.231150 1.167246 0.702575 21.691786 -10.610861 7.116503 -20.523919 25.448199 60.383448 67.380684 55.062209 -72.850429 0.000000 0.000000 0.000000 
-8.013060 85.044250 4.964506 0.000000 0.000000 0.000000 -16.135743 2.491599 0.255364 -24.652480 -2.523908 18.025904 63.102356 -9.153475 -1.732321 -20.604123 0.425762 -14.192530 0.000000 0.000000 0.000000 -16.487153 3.520859 0.716144 -14.088777 -7.255263 -22.394336 62.211637 -3.594199 6.642502 -35.972851 8.240359 9.077633 0.000000 0.000000 0.000000 -16.578643 3.561760 0.488129 -0.871810 -0.044607 -0.074377 14.243781 -0.063505 0.534441 6.165337 -3.335478 2.574402 0.000000 0.000000 0.000000 6.710533 -0.126136 1.993988 -3.195218 -1.669724 2.007978 0.000000 0.000000 0.000000 8.675746 -0.574852 2.165883 -0.171311 -14.993821 11.715930 4.512534 -19.564170 -58.369342 70.697260 -75.357764 77.825347 0.000000 0.000000 0.000000 6.017584 0.545170 0.997211 20.667280 -10.809433 2.411934 -14.923478 26.141275 55.521368 65.345881 55.781089 -70.848630 0.000000 0.000000 0.000000 
-8.014158 85.203529 5.000414 0.000000 0.000000 0.000000 -16.210930 2.368441 0.358214 -24.578755 -2.832024 17.542607 62.968388 -8.977954 -1.608892 -19.714808 0.443224 -13.474160 0.000000 0.000000 0.000000 -16.513905 3.406082 0.894393 -13.743924 -7.421921 -22.617931 61.714529 -3.753552 6.488425 -36.021858 8.463188 9.661426 0.000000 0.000000 0.000000 -16.637033 3.490943 0.634046 -0.900320 -0.051909 -0.117237 14.941384 -0.313336 0.055535 6.062926 -3.981596 3.001916 0.000000 0.000000 0.000000 6.442497 -0.718844 2.451825 -1.851983 -1.595443 1.732695 0.000000 0.000000 0.000000 9.021759 -1.134962 2.475505 -0.201303 -13.775350 12.444218 9.960735 -19.163380 -47.616408 83.178897 -79.767703 89.193446 0.000000 0.000000 0.000000 5.830885 -0.013458 1.558764 19.629912 -10.553306 -1.985208 -11.599108 25.079106 49.697174 63.241575 57.746271 -68.397248 0.000000 0.000000 0.000000 
-7.989174 85.280388 4.899355 0.000000 0.000000 0.000000 -16.129131 2.244136 0.504804 -24.641907 -2.988117 16.989295 62.552006 -8.754720 -1.554843 -18.856788 0.525549 -12.700650 0.000000 0.000000 0.000000 -16.424141 3.220664 1.065240 -13.748869 -7.398084 -22.896317 61.207606 -3.878412 6.338749 -35.735174 8.755693 10.395340 0.000000 0.000000 0.000000 -16.512156 3.307255 0.805538 -0.917487 -0.073012 -0.139386 15.862090 -0.316324 -0.412440 6.167540 -4.451301 3.593505 0.000000 0.000000 0.000000 6.651155 -1.138252 3.095529 -0.205871 -1.494956 1.318959 0.000000 0.000000 0.000000 9.453480 -1.543902 2.950501 -0.452509 -12.381328 13.023915 12.733208 -16.966408 -37.397697 103.718642 -83.523583 108.815623 0.000000 0.000000 0.000000 5.798006 -0.391625 2.353016 18.510912 -10.351782 -5.519514 -13.686650 22.788421 44.223860 62.988319 61.087074 -67.577338 0.000000 0.000000 0.000000 
-7.955954 85.149216 4.635836 0.000000 0.000000 0.000000 -15.903858 2.261393 0.659129 -25.046297 -2.943422 16.444022 62.234150 -8.483477 -1.581746 -18.349083 0.716006 -11.933281 0.000000 0.000000 0.000000 -16.228738 3.187665 1.198700 -14.232938 -7.132732 -23.255802 61.113794 -3.894009 6.233205 -35.404969 9.066286 11.140370 0.000000 0.000000 0.000000 -16.281551 3.173493 0.936154 -0.910620 -0.090606 -0.129816 17.052843 -0.020712 -0.930945 6.523909 -4.641464 4.305940 0.000000 0.000000 0.000000 7.321760 -1.286522 3.867156 1.583759 -1.401202 0.786009 0.000000 0.000000 0.000000 9.923463 -1.718428 3.547938 -0.959374 -11.073368 13.110546 10.261180 -12.710648 -29.802233 151.883914 -84.654963 156.583262 0.000000 0.000000 0.000000 5.908954 -0.534751 3.277420 17.213205 -10.555813 -7.773819 -22.751551 20.827332 40.993617 66.437011 65.523822 -70.490674 0.000000 0.000000 0.000000 
